<svg width="10" height="14" viewBox="0 0 10 14" fill="none" xmlns="http://www.w3.org/2000/svg">
<path fill-rule="evenodd" clip-rule="evenodd" d="M1.48779 2.25671C1.6032 2.14131 1.75973 2.07647 1.92294 2.07647H8.07678C8.23999 2.07647 8.39652 2.14131 8.51193 2.25671C8.62733 2.37212 8.69217 2.52865 8.69217 2.69186V11.4776L5.30518 9.54217C5.11599 9.43406 4.88373 9.43406 4.69454 9.54217L1.30755 11.4776V2.69186C1.30755 2.52865 1.37239 2.37212 1.48779 2.25671ZM1.92294 0.845703C1.43331 0.845703 0.963729 1.04021 0.617508 1.38643C0.271287 1.73265 0.0767822 2.20223 0.0767822 2.69186V12.538C0.0767822 12.7574 0.193557 12.9602 0.383289 13.0703C0.573021 13.1804 0.80702 13.1812 0.997483 13.0723L4.99986 10.7852L9.00224 13.0723C9.1927 13.1812 9.4267 13.1804 9.61643 13.0703C9.80616 12.9602 9.92294 12.7574 9.92294 12.538V2.69186C9.92294 2.20223 9.72843 1.73265 9.38221 1.38643C9.03599 1.04021 8.56641 0.845703 8.07678 0.845703H1.92294Z" fill="white"/>
<path fill-rule="evenodd" clip-rule="evenodd" d="M1.48779 2.25671C1.6032 2.14131 1.75973 2.07647 1.92294 2.07647H8.07678C8.23999 2.07647 8.39652 2.14131 8.51193 2.25671C8.62733 2.37212 8.69217 2.52865 8.69217 2.69186V11.4776L5.30518 9.54217C5.11599 9.43406 4.88373 9.43406 4.69454 9.54217L1.30755 11.4776V2.69186C1.30755 2.52865 1.37239 2.37212 1.48779 2.25671ZM7.28116 4.10287C7.52148 4.34319 7.52148 4.73283 7.28116 4.97315L4.81962 7.43469C4.5793 7.67502 4.18965 7.67502 3.94933 7.43469L2.71856 6.20392C2.47824 5.9636 2.47824 5.57396 2.71856 5.33364C2.95889 5.09332 3.34853 5.09332 3.58885 5.33364L4.38448 6.12926L6.41087 4.10287C6.65119 3.86255 7.04083 3.86255 7.28116 4.10287Z" fill="white"/>
</svg>
