<svg width="32" height="32" viewBox="0 0 32 32" fill="none" xmlns="http://www.w3.org/2000/svg">
<rect width="32" height="32" rx="16" fill="url(#paint0_linear_2230_633)" fill-opacity="0.5"/>
<path fill-rule="evenodd" clip-rule="evenodd" d="M12.9229 11.0767C12.7597 11.0767 12.6032 11.1416 12.4878 11.257C12.3724 11.3724 12.3076 11.5289 12.3076 11.6921V20.4778L15.6945 18.5424C15.8837 18.4343 16.116 18.4343 16.3052 18.5424L19.6922 20.4778V11.6921C19.6922 11.5289 19.6273 11.3724 19.5119 11.257C19.3965 11.1416 19.24 11.0767 19.0768 11.0767H12.9229ZM11.6175 10.3867C11.9637 10.0405 12.4333 9.84595 12.9229 9.84595H19.0768C19.5664 9.84595 20.036 10.0405 20.3822 10.3867C20.7284 10.7329 20.9229 11.2025 20.9229 11.6921V21.5383C20.9229 21.7576 20.8062 21.9604 20.6164 22.0705C20.4267 22.1806 20.1927 22.1814 20.0022 22.0726L15.9999 19.7855L11.9975 22.0726C11.807 22.1814 11.573 22.1806 11.3833 22.0705C11.1936 21.9604 11.0768 21.7576 11.0768 21.5383V11.6921C11.0768 11.2025 11.2713 10.7329 11.6175 10.3867Z" fill="white"/>
<defs>
<linearGradient id="paint0_linear_2230_633" x1="-15.7288" y1="8.69333" x2="46.9153" y2="8.69333" gradientUnits="userSpaceOnUse">
<stop/>
<stop offset="1" stop-color="#666666"/>
</linearGradient>
</defs>
</svg>
